<mxfile host="app.diagrams.net" modified="2020-04-21T14:04:04.492Z" agent="5.0 (Macintosh; Intel Mac OS X 10_14_6) AppleWebKit/537.36 (KHTML, like Gecko) Chrome/80.0.3987.163 Safari/537.36" etag="VPFDFWMud0DwDRXk7pLy" version="12.9.8" type="github">
  <diagram id="_J3DSqKPne3M4bm3gBSn" name="Page-1">
    <mxGraphModel dx="1175" dy="993" grid="1" gridSize="10" guides="1" tooltips="1" connect="1" arrows="1" fold="1" page="1" pageScale="1" pageWidth="827" pageHeight="1169" math="0" shadow="0">
      <root>
        <mxCell id="0" />
        <mxCell id="1" parent="0" />
        <mxCell id="FSPtehWeZRqpizrZKF0w-1" value="风险识别算法（方案A）" style="swimlane;fontStyle=0;childLayout=stackLayout;horizontal=1;startSize=26;horizontalStack=0;resizeParent=1;resizeParentMax=0;resizeLast=0;collapsible=1;marginBottom=0;align=center;fontSize=14;" vertex="1" parent="1">
          <mxGeometry x="110" y="180" width="200" height="150" as="geometry" />
        </mxCell>
        <mxCell id="FSPtehWeZRqpizrZKF0w-2" value="CPU：MK算法" style="text;strokeColor=none;fillColor=none;spacingLeft=4;spacingRight=4;overflow=hidden;rotatable=0;points=[[0,0.5],[1,0.5]];portConstraint=eastwest;fontSize=12;" vertex="1" parent="FSPtehWeZRqpizrZKF0w-1">
          <mxGeometry y="26" width="200" height="26" as="geometry" />
        </mxCell>
        <mxCell id="FSPtehWeZRqpizrZKF0w-3" value="QPS：Hotspot" style="text;strokeColor=none;fillColor=none;spacingLeft=4;spacingRight=4;overflow=hidden;rotatable=0;points=[[0,0.5],[1,0.5]];portConstraint=eastwest;fontSize=12;" vertex="1" parent="FSPtehWeZRqpizrZKF0w-1">
          <mxGeometry y="52" width="200" height="26" as="geometry" />
        </mxCell>
        <mxCell id="FSPtehWeZRqpizrZKF0w-4" value="QPS：天级别同环比&#xa;&#xa;判定逻辑：专家经验&amp;预设逻辑" style="text;strokeColor=none;fillColor=none;spacingLeft=4;spacingRight=4;overflow=hidden;rotatable=0;points=[[0,0.5],[1,0.5]];portConstraint=eastwest;fontSize=12;" vertex="1" parent="FSPtehWeZRqpizrZKF0w-1">
          <mxGeometry y="78" width="200" height="72" as="geometry" />
        </mxCell>
        <mxCell id="FSPtehWeZRqpizrZKF0w-17" style="rounded=0;orthogonalLoop=1;jettySize=auto;html=1;exitX=0.5;exitY=0;exitDx=0;exitDy=0;" edge="1" parent="1" source="FSPtehWeZRqpizrZKF0w-5" target="FSPtehWeZRqpizrZKF0w-4">
          <mxGeometry relative="1" as="geometry" />
        </mxCell>
        <mxCell id="FSPtehWeZRqpizrZKF0w-5" value="MK算法" style="swimlane;fontStyle=0;childLayout=stackLayout;horizontal=1;startSize=26;horizontalStack=0;resizeParent=1;resizeParentMax=0;resizeLast=0;collapsible=1;marginBottom=0;align=center;fontSize=14;" vertex="1" parent="1">
          <mxGeometry x="110" y="390" width="160" height="104" as="geometry" />
        </mxCell>
        <mxCell id="FSPtehWeZRqpizrZKF0w-6" value="CPU" style="text;strokeColor=none;fillColor=none;spacingLeft=4;spacingRight=4;overflow=hidden;rotatable=0;points=[[0,0.5],[1,0.5]];portConstraint=eastwest;fontSize=12;" vertex="1" parent="FSPtehWeZRqpizrZKF0w-5">
          <mxGeometry y="26" width="160" height="26" as="geometry" />
        </mxCell>
        <mxCell id="FSPtehWeZRqpizrZKF0w-7" value="Threshold：3.7" style="text;strokeColor=none;fillColor=none;spacingLeft=4;spacingRight=4;overflow=hidden;rotatable=0;points=[[0,0.5],[1,0.5]];portConstraint=eastwest;fontSize=12;" vertex="1" parent="FSPtehWeZRqpizrZKF0w-5">
          <mxGeometry y="52" width="160" height="26" as="geometry" />
        </mxCell>
        <mxCell id="FSPtehWeZRqpizrZKF0w-8" value="计算逻辑" style="text;strokeColor=none;fillColor=none;spacingLeft=4;spacingRight=4;overflow=hidden;rotatable=0;points=[[0,0.5],[1,0.5]];portConstraint=eastwest;fontSize=12;" vertex="1" parent="FSPtehWeZRqpizrZKF0w-5">
          <mxGeometry y="78" width="160" height="26" as="geometry" />
        </mxCell>
        <mxCell id="FSPtehWeZRqpizrZKF0w-18" style="rounded=0;orthogonalLoop=1;jettySize=auto;html=1;exitX=0.5;exitY=0;exitDx=0;exitDy=0;" edge="1" parent="1" source="FSPtehWeZRqpizrZKF0w-9" target="FSPtehWeZRqpizrZKF0w-4">
          <mxGeometry relative="1" as="geometry" />
        </mxCell>
        <mxCell id="FSPtehWeZRqpizrZKF0w-9" value="Hotspot算法" style="swimlane;fontStyle=0;childLayout=stackLayout;horizontal=1;startSize=26;horizontalStack=0;resizeParent=1;resizeParentMax=0;resizeLast=0;collapsible=1;marginBottom=0;align=center;fontSize=14;" vertex="1" parent="1">
          <mxGeometry x="350" y="390" width="180" height="104" as="geometry" />
        </mxCell>
        <mxCell id="FSPtehWeZRqpizrZKF0w-10" value="QPS（昨日，7天前，14天前）" style="text;strokeColor=none;fillColor=none;spacingLeft=4;spacingRight=4;overflow=hidden;rotatable=0;points=[[0,0.5],[1,0.5]];portConstraint=eastwest;fontSize=12;" vertex="1" parent="FSPtehWeZRqpizrZKF0w-9">
          <mxGeometry y="26" width="180" height="26" as="geometry" />
        </mxCell>
        <mxCell id="FSPtehWeZRqpizrZKF0w-11" value="Threshold：0.99" style="text;strokeColor=none;fillColor=none;spacingLeft=4;spacingRight=4;overflow=hidden;rotatable=0;points=[[0,0.5],[1,0.5]];portConstraint=eastwest;fontSize=12;" vertex="1" parent="FSPtehWeZRqpizrZKF0w-9">
          <mxGeometry y="52" width="180" height="26" as="geometry" />
        </mxCell>
        <mxCell id="FSPtehWeZRqpizrZKF0w-12" value="计算逻辑" style="text;strokeColor=none;fillColor=none;spacingLeft=4;spacingRight=4;overflow=hidden;rotatable=0;points=[[0,0.5],[1,0.5]];portConstraint=eastwest;fontSize=12;" vertex="1" parent="FSPtehWeZRqpizrZKF0w-9">
          <mxGeometry y="78" width="180" height="26" as="geometry" />
        </mxCell>
        <mxCell id="FSPtehWeZRqpizrZKF0w-19" style="rounded=0;orthogonalLoop=1;jettySize=auto;html=1;exitX=0.5;exitY=0;exitDx=0;exitDy=0;entryX=1;entryY=0.5;entryDx=0;entryDy=0;" edge="1" parent="1" source="FSPtehWeZRqpizrZKF0w-13" target="FSPtehWeZRqpizrZKF0w-4">
          <mxGeometry relative="1" as="geometry" />
        </mxCell>
        <mxCell id="FSPtehWeZRqpizrZKF0w-13" value="D2D判定" style="swimlane;fontStyle=0;childLayout=stackLayout;horizontal=1;startSize=26;horizontalStack=0;resizeParent=1;resizeParentMax=0;resizeLast=0;collapsible=1;marginBottom=0;align=center;fontSize=14;" vertex="1" parent="1">
          <mxGeometry x="600" y="390" width="160" height="104" as="geometry" />
        </mxCell>
        <mxCell id="FSPtehWeZRqpizrZKF0w-14" value="QPS（7天，14天，30天）" style="text;strokeColor=none;fillColor=none;spacingLeft=4;spacingRight=4;overflow=hidden;rotatable=0;points=[[0,0.5],[1,0.5]];portConstraint=eastwest;fontSize=12;" vertex="1" parent="FSPtehWeZRqpizrZKF0w-13">
          <mxGeometry y="26" width="160" height="26" as="geometry" />
        </mxCell>
        <mxCell id="FSPtehWeZRqpizrZKF0w-15" value="Thread：u+3d" style="text;strokeColor=none;fillColor=none;spacingLeft=4;spacingRight=4;overflow=hidden;rotatable=0;points=[[0,0.5],[1,0.5]];portConstraint=eastwest;fontSize=12;" vertex="1" parent="FSPtehWeZRqpizrZKF0w-13">
          <mxGeometry y="52" width="160" height="26" as="geometry" />
        </mxCell>
        <mxCell id="FSPtehWeZRqpizrZKF0w-16" value="计算逻辑" style="text;strokeColor=none;fillColor=none;spacingLeft=4;spacingRight=4;overflow=hidden;rotatable=0;points=[[0,0.5],[1,0.5]];portConstraint=eastwest;fontSize=12;" vertex="1" parent="FSPtehWeZRqpizrZKF0w-13">
          <mxGeometry y="78" width="160" height="26" as="geometry" />
        </mxCell>
        <mxCell id="FSPtehWeZRqpizrZKF0w-31" style="edgeStyle=none;rounded=0;orthogonalLoop=1;jettySize=auto;html=1;exitX=0.5;exitY=0;exitDx=0;exitDy=0;entryX=0.522;entryY=1;entryDx=0;entryDy=0;entryPerimeter=0;" edge="1" parent="1" source="FSPtehWeZRqpizrZKF0w-26" target="FSPtehWeZRqpizrZKF0w-12">
          <mxGeometry relative="1" as="geometry">
            <mxPoint x="440" y="500" as="targetPoint" />
          </mxGeometry>
        </mxCell>
        <mxCell id="FSPtehWeZRqpizrZKF0w-34" style="edgeStyle=none;rounded=0;orthogonalLoop=1;jettySize=auto;html=1;exitX=0.5;exitY=0;exitDx=0;exitDy=0;" edge="1" parent="1" source="FSPtehWeZRqpizrZKF0w-26" target="FSPtehWeZRqpizrZKF0w-16">
          <mxGeometry relative="1" as="geometry" />
        </mxCell>
        <mxCell id="FSPtehWeZRqpizrZKF0w-26" value="基础计算逻辑" style="swimlane;childLayout=stackLayout;horizontal=1;startSize=30;horizontalStack=0;rounded=1;fontSize=14;fontStyle=0;strokeWidth=2;resizeParent=0;resizeLast=1;shadow=0;dashed=0;align=center;" vertex="1" parent="1">
          <mxGeometry x="630" y="590" width="160" height="120" as="geometry" />
        </mxCell>
        <mxCell id="FSPtehWeZRqpizrZKF0w-27" value="- 极值计算" style="align=left;strokeColor=none;fillColor=none;spacingLeft=4;fontSize=12;verticalAlign=top;resizable=0;rotatable=0;part=1;" vertex="1" parent="FSPtehWeZRqpizrZKF0w-26">
          <mxGeometry y="30" width="160" height="90" as="geometry" />
        </mxCell>
        <mxCell id="FSPtehWeZRqpizrZKF0w-30" style="edgeStyle=none;rounded=0;orthogonalLoop=1;jettySize=auto;html=1;exitX=0.5;exitY=0;exitDx=0;exitDy=0;" edge="1" parent="1" source="FSPtehWeZRqpizrZKF0w-24" target="FSPtehWeZRqpizrZKF0w-12">
          <mxGeometry relative="1" as="geometry" />
        </mxCell>
        <mxCell id="FSPtehWeZRqpizrZKF0w-24" value="基础计算逻辑" style="swimlane;childLayout=stackLayout;horizontal=1;startSize=30;horizontalStack=0;rounded=1;fontSize=14;fontStyle=0;strokeWidth=2;resizeParent=0;resizeLast=1;shadow=0;dashed=0;align=center;" vertex="1" parent="1">
          <mxGeometry x="440" y="590" width="160" height="120" as="geometry" />
        </mxCell>
        <mxCell id="FSPtehWeZRqpizrZKF0w-25" value="- 分位数值计算" style="align=left;strokeColor=none;fillColor=none;spacingLeft=4;fontSize=12;verticalAlign=top;resizable=0;rotatable=0;part=1;" vertex="1" parent="FSPtehWeZRqpizrZKF0w-24">
          <mxGeometry y="30" width="160" height="90" as="geometry" />
        </mxCell>
        <mxCell id="FSPtehWeZRqpizrZKF0w-29" style="edgeStyle=none;rounded=0;orthogonalLoop=1;jettySize=auto;html=1;exitX=0.5;exitY=0;exitDx=0;exitDy=0;" edge="1" parent="1" source="FSPtehWeZRqpizrZKF0w-22">
          <mxGeometry relative="1" as="geometry">
            <mxPoint x="180" y="490" as="targetPoint" />
          </mxGeometry>
        </mxCell>
        <mxCell id="FSPtehWeZRqpizrZKF0w-32" style="edgeStyle=none;rounded=0;orthogonalLoop=1;jettySize=auto;html=1;exitX=0.5;exitY=0;exitDx=0;exitDy=0;entryX=0.5;entryY=1;entryDx=0;entryDy=0;entryPerimeter=0;" edge="1" parent="1" source="FSPtehWeZRqpizrZKF0w-22" target="FSPtehWeZRqpizrZKF0w-16">
          <mxGeometry relative="1" as="geometry" />
        </mxCell>
        <mxCell id="FSPtehWeZRqpizrZKF0w-22" value="基础计算逻辑" style="swimlane;childLayout=stackLayout;horizontal=1;startSize=30;horizontalStack=0;rounded=1;fontSize=14;fontStyle=0;strokeWidth=2;resizeParent=0;resizeLast=1;shadow=0;dashed=0;align=center;" vertex="1" parent="1">
          <mxGeometry x="270" y="590" width="160" height="120" as="geometry" />
        </mxCell>
        <mxCell id="FSPtehWeZRqpizrZKF0w-23" value="- 方差值计算" style="align=left;strokeColor=none;fillColor=none;spacingLeft=4;fontSize=12;verticalAlign=top;resizable=0;rotatable=0;part=1;" vertex="1" parent="FSPtehWeZRqpizrZKF0w-22">
          <mxGeometry y="30" width="160" height="90" as="geometry" />
        </mxCell>
        <mxCell id="FSPtehWeZRqpizrZKF0w-28" style="edgeStyle=none;rounded=0;orthogonalLoop=1;jettySize=auto;html=1;exitX=0.5;exitY=0;exitDx=0;exitDy=0;" edge="1" parent="1" source="FSPtehWeZRqpizrZKF0w-20" target="FSPtehWeZRqpizrZKF0w-8">
          <mxGeometry relative="1" as="geometry" />
        </mxCell>
        <mxCell id="FSPtehWeZRqpizrZKF0w-33" style="edgeStyle=none;rounded=0;orthogonalLoop=1;jettySize=auto;html=1;exitX=0.5;exitY=0;exitDx=0;exitDy=0;" edge="1" parent="1" source="FSPtehWeZRqpizrZKF0w-20" target="FSPtehWeZRqpizrZKF0w-16">
          <mxGeometry relative="1" as="geometry" />
        </mxCell>
        <mxCell id="FSPtehWeZRqpizrZKF0w-20" value="基础计算逻辑" style="swimlane;childLayout=stackLayout;horizontal=1;startSize=30;horizontalStack=0;rounded=1;fontSize=14;fontStyle=0;strokeWidth=2;resizeParent=0;resizeLast=1;shadow=0;dashed=0;align=center;" vertex="1" parent="1">
          <mxGeometry x="90" y="590" width="160" height="120" as="geometry" />
        </mxCell>
        <mxCell id="FSPtehWeZRqpizrZKF0w-21" value="- 平均值计算" style="align=left;strokeColor=none;fillColor=none;spacingLeft=4;fontSize=12;verticalAlign=top;resizable=0;rotatable=0;part=1;" vertex="1" parent="FSPtehWeZRqpizrZKF0w-20">
          <mxGeometry y="30" width="160" height="90" as="geometry" />
        </mxCell>
      </root>
    </mxGraphModel>
  </diagram>
</mxfile>
